<svg id="Capa_1" enable-background="new 0 0 512.054 512.054" height="512" viewBox="0 0 512.054 512.054" width="512" xmlns="http://www.w3.org/2000/svg"><path d="m505.408 240.082-233.472-233.471c-8.771-8.771-23.046-8.771-31.819 0l-233.471 233.471c-6.557 6.558-8.425 15.953-4.876 24.52s11.514 13.889 20.786 13.889h22.471v94.265c0 4.142 3.357 7.5 7.5 7.5s7.5-3.358 7.5-7.5v-101.765c0-4.142-3.357-7.5-7.5-7.5h-29.971c-4.649 0-6.479-3.543-6.929-4.629-.449-1.086-1.662-4.885 1.626-8.173l233.47-233.47c2.926-2.924 7.685-2.923 10.606 0l233.471 233.47c3.288 3.288 2.075 7.087 1.626 8.173-.45 1.086-2.279 4.629-6.929 4.629h-29.971c-4.143 0-7.5 3.358-7.5 7.5v226.031h-120.666v-197.5c0-4.142-3.357-7.5-7.5-7.5h-135.666c-4.143 0-7.5 3.358-7.5 7.5v197.5h-120.667v-94.266c0-4.142-3.357-7.5-7.5-7.5s-7.5 3.358-7.5 7.5v101.766c0 4.142 3.357 7.5 7.5 7.5h135.667c4.143 0 7.5-3.358 7.5-7.5v-197.5h120.666v197.5c0 4.142 3.357 7.5 7.5 7.5h135.667c4.143 0 7.5-3.358 7.5-7.5v-226.031h22.471c9.272 0 17.237-5.322 20.786-13.889s1.681-17.962-4.876-24.52z"/></svg>