<?xml version="1.0" encoding="iso-8859-1"?>
<!-- Generator: Adobe Illustrator 19.0.0, SVG Export Plug-In . SVG Version: 6.00 Build 0)  -->
<svg version="1.1" id="Capa_1" xmlns="http://www.w3.org/2000/svg" xmlns:xlink="http://www.w3.org/1999/xlink" x="0px" y="0px"
	 viewBox="0 0 368.034 368.034" style="enable-background:new 0 0 368.034 368.034;" xml:space="preserve">
<g>
	<g>
		<path d="M167.264,71.318h-28.24c-4.418,0-8,3.582-8,8s3.582,8,8,8h28.24c4.418,0,8-3.582,8-8S171.682,71.318,167.264,71.318z"/>
	</g>
</g>
<g>
	<g>
		<path d="M178.464,258.998h-46.24c-4.418,0-8,3.582-8,8s3.582,8,8,8h46.24c4.418,0,8-3.582,8-8S182.882,258.998,178.464,258.998z"
			/>
	</g>
</g>
<g>
	<g>
		<path d="M352.144,109.638v-0.8c-5.584-12.438-12.533-24.217-20.72-35.12C270.51-7.623,155.191-24.182,73.85,36.731
			C27.448,71.48,0.135,126.066,0.144,184.038c0,1.44,0,2.88,0,4.32C2.532,289.95,86.825,370.371,188.417,367.982
			c66.46-1.562,126.909-38.852,158.126-97.545v-0.56c5.785-10.913,10.449-22.385,13.92-34.24
			C372.696,193.977,369.748,149.328,352.144,109.638z M347.104,224.518h-70.48c-4.418,0-8,3.582-8,8s3.582,8,8,8h65.52
			c-2.296,6.288-4.967,12.432-8,18.4h-33.76c-4.418,0-8,3.582-8,8s3.582,8,8,8h24.88c-50.518,77.825-154.56,99.963-232.386,49.445
			c-43.828-28.45-71.924-75.673-76.014-127.765h85.6c4.418,0,8-3.582,8-8s-3.582-8-8-8h-86.32c0.16-9.966,1.205-19.898,3.12-29.68
			h55.28c4.418,0,8-3.582,8-8s-3.582-8-8-8h-51.2C50.631,46.237,144.642-3.531,233.323,23.757
			c28.778,8.855,54.647,25.282,74.901,47.561h-58.08c-4.418,0-8,3.582-8,8s3.582,8,8,8h71.12c3.902,5.356,7.481,10.939,10.72,16.72
			h-115.12c-4.418,0-8,3.582-8,8s3.582,8,8,8h122.64c13.653,32.952,16.263,69.44,7.44,104L347.104,224.518z"/>
	</g>
</g>
<g>
	<g>
		<path d="M153.104,180.598h-14.08c-4.418,0-8,3.582-8,8s3.582,8,8,8h14.08c4.418,0,8-3.582,8-8S157.522,180.598,153.104,180.598z"
			/>
	</g>
</g>
<g>
	<g>
		<path d="M216.864,224.518h-18.08c-4.418,0-8,3.582-8,8s3.582,8,8,8h18.08c4.418,0,8-3.582,8-8S221.282,224.518,216.864,224.518z"
			/>
	</g>
</g>
<g>
</g>
<g>
</g>
<g>
</g>
<g>
</g>
<g>
</g>
<g>
</g>
<g>
</g>
<g>
</g>
<g>
</g>
<g>
</g>
<g>
</g>
<g>
</g>
<g>
</g>
<g>
</g>
<g>
</g>
</svg>
